<?xml version="1.0" encoding="UTF-8"?>
<svg id="Layer_1" data-name="Layer 1" xmlns="http://www.w3.org/2000/svg" viewBox="0 0 32 32">
  <defs>
    <style>
      .cls-1 {
        fill: #9ad4b6;
      }

      .cls-2 {
        fill: #27aae1;
      }
    </style>
  </defs>
  <circle class="cls-1" cx="16" cy="16" r="14.11"/>
  <path class="cls-1" d="M3.7,10.87c2.42.04,4.84.02,7.26-.06.39-.01,1.18-.19,1.5.08.29.25.25.84.22,1.19-.05.67-.51.7-1.07.86-.6.18-1.2.36-1.8.53-.48.14-.47.82,0,.96.69.21,1.38.44,2.06.68.33.12.65.23.97.36.06.02.37.12.41.2.09.15-.06.23-.17.35-.85.92-1.87,1.69-2.95,2.3s-2.38,1.24-3.62,1.35c-1.59.15-1.89-1.57-2-2.78-.06-.63-1.06-.64-1,0,.15,1.52.54,3.44,2.33,3.75.89.16,1.83-.17,2.66-.47s1.56-.65,2.29-1.07,1.41-.92,2.05-1.47c.52-.44,1.44-1.1,1.49-1.84.06-.81-.77-1.12-1.4-1.36-.94-.36-1.89-.68-2.85-.98v.96c.76-.23,1.52-.44,2.27-.68.54-.17.99-.41,1.2-.97.34-.9.21-2.43-.77-2.88-.57-.26-1.31-.13-1.92-.11-.77.02-1.55.04-2.32.06-1.61.03-3.23.02-4.84,0-.64-.01-.64.99,0,1h0Z"/>
  <path class="cls-2" d="M8.07,23.51c-.13-.69-.28-1.46-.07-2.16.18-.57.71-1.14,1.36-1,.29.06.66-.14.63-.48-.02-.24-.15-.72-.07-.94s.2-.23.42-.31c.4-.13.81-.19,1.2-.33.35-.13.67-.31.93-.59.28-.31.39-.72.82-.86.37-.12.75-.03,1.12-.21.33-.15.59-.41.79-.71.5-.75.72-1.73.72-2.63.02-2.01-1.23-3.64-2.25-5.26-.24-.38-.47-.91-.84-1.2-.16-.12-.34-.15-.52-.25-.23-.13-.36-.31-.54-.49-.63-.63-1.4-1.07-2.25-1.34l.37.48c-.14-1.16,1.43-.84,2.06-.62.95.33,1.89.68,2.86.94.83.22,1.66.4,2.5.54s1.73.36,2.53.07c.55-.2,1.08-.85,1.64-.93.27-.04.19-.04.21.26.01.23.01.47,0,.71s-.01.47-.02.7c-.02.38,0,.52-.29.75-.5.39-.91.71-1.23,1.28-.35.64-.77,1.49-.72,2.24s.62,1.43.76,2.2c.15.82,0,1.67.14,2.48s.75.84,1.22,1.35.66,1.33,1.01,1.93c.4.67.99,1.41.84,2.25-.14.75-.81,1.31-1.37,1.76-1.06.84-2.4,1.73-2.45,3.24,0,.13.07.39.02.51-.1.26-.54.31-.77.38-.51.16-1.03.3-1.56.4-1.03.19-2.06.2-3.08-.06-.95-.24-1.87-.61-2.85-.7-.49-.04-.97,0-1.45.06-.35.05-.81.05-1.11.24-.28.17-.32.55-.1.79.07.07.14.1.24.14.14.06.05.06-.07-.07l.1-.79h0c.13,0,.26.02.39.04-.67-.4-1.59-.87-2.03-1.53-.27-.4.24-.62.5-.92.23-.27.38-.57.35-.92-.05-.64-1.05-.64-1,0,.03.39-.74.82-.9,1.22-.24.59.05,1.04.47,1.45s.83.75,1.31,1.07c.4.27.93.77,1.43.47.28-.17.32-.55.1-.79-.07-.07-.14-.1-.24-.14-.14-.06-.05-.06.07.07l-.1.79c.27-.16.96-.15,1.29-.17.54-.03,1.06.04,1.58.17.92.23,1.81.58,2.76.7s1.98.02,2.95-.2c.49-.11.96-.24,1.44-.4.34-.11.77-.2,1.02-.48.23-.25.26-.56.26-.88,0-.46.02-.83.27-1.24.46-.73,1.21-1.19,1.87-1.72,1.3-1.03,2.12-2.39,1.37-4.03-.36-.78-.86-1.47-1.21-2.26-.14-.33-.3-.65-.53-.93-.25-.31-.62-.42-.88-.68-.31-.3-.18-.93-.19-1.34-.01-.47-.04-.93-.11-1.39-.15-.92-.93-1.8-.61-2.72.29-.83.64-1.57,1.42-2.01.81-.47.71-1.44.72-2.27,0-.72.17-1.88-.8-2-.77-.1-1.37.43-1.99.81-.94.58-2.24.16-3.26-.05-1.14-.23-2.27-.54-3.37-.92-.97-.34-2.06-.92-3.11-.59-.76.24-1.39.95-1.29,1.78.03.23.14.41.37.48.96.3,1.5.87,2.22,1.52.24.22.58.27.8.47.33.29.56.88.79,1.25,1.02,1.62,2.21,3.25,1.75,5.27-.09.41-.22.85-.48,1.19-.31.41-.67.36-1.13.43-.36.05-.66.17-.92.42s-.37.61-.64.83c-.54.46-1.4.42-2.02.71-.88.42-.7,1.2-.64,2.04l.63-.48c-.95-.2-1.83.27-2.33,1.09-.6.99-.4,2.22-.2,3.3.12.63,1.08.36.96-.27h0Z"/>
  <path class="cls-2" d="M9.56,26.94c.42-.3.76-.43,1.27-.51.73-.11,1.17-.99,1.07-1.65-.11-.72-.71-1.31-1.47-1.3-1.12.02-2.02.41-2.88,1.09-.58.46-.54,1.44-.12,1.97.46.58,1.27.77,1.94.39.72-.41.92-1.04,1.05-1.8.06-.39.31-.86.45-1.32.09-.31.15-.66.14-.99,0-.14-.05-.89-.21-.99-.11-.07-.25,1.11-.53,1.01.05.01.21-.06.26-.08.27-.08.55-.17.79-.31.55-.32.94-.84,1.03-1.47.03-.21.02-.37,0-.58-.06-.41,0-.55-.28.06-.38.81-.2.38-.09.38-.05,0,.28-.11.3-.12.61-.27,1.11-.69,1.58-1.16.28-.29.59-.75,1.02-.73l-1.45-1.9c-.48,1.41-1.5,2.57-2.37,3.75-.45.61-.9,1.24-1.23,1.92-.19.39-.36.79-.44,1.22-.05.29-.08.55-.06.84l.05.4c.03.24.05.29.05.15l.2-.76c.11-.21-.28.26-.33.31-.2.19-.4.38-.59.57-.89.85-.26,2.67,1.06,2.56,1.52-.13,3.03.04,4.55.05.76,0,1.51-.04,2.27-.16.37-.05.74-.13,1.1-.23.16-.04.37-.06.5-.13.23-.12-.06.03-.12,0l1.16-2.74c-1.32-.19-2.23.29-3.23,1.09-.63.51-.53,1.59,0,2.12.63.63,1.48.5,2.12,0,1.14-.89,1.95-2.11,2.77-3.28s2.03-2.12,2.58-3.48l-1.45,1.1.14-.02-.76-.2.14.07-.54-.54.09.13-.2-.76c.11-.2.11-.21,0-.01.08-.08.06-.05-.07.08.01-.02-.36.31-.2.19-.34.26-.74.45-1.12.66-.87.49-1.62,1.04-2.2,1.86-.47.66-.12,1.67.54,2.05.75.44,1.58.12,2.05-.54s2-1.19,2.81-1.89c.53-.45.99-1.1,1.15-1.79.25-1.11-.58-2.47-1.83-2.3-.74.1-1.17.41-1.45,1.1-.15.39-.73.77-1.01,1.1-.45.53-.87,1.1-1.27,1.67-.69.98-1.35,1.93-2.31,2.67l2.12,2.12c.17-.14.65-.27.31-.32.74.11,1.47-.12,1.77-.87s.02-1.45-.61-1.87c-.76-.51-1.65-.44-2.5-.22-.76.2-1.48.32-2.27.34-1.69.03-3.37-.19-5.05-.05l1.06,2.56c.4-.38.87-.76,1.21-1.2.23-.31.37-.64.39-1.03,0-.24-.13-.51-.11-.73.04-.66.69-1.4,1.06-1.92,1.11-1.56,2.31-2.98,2.93-4.82.33-.97-.53-1.85-1.45-1.9-.74-.04-1.45.21-2.04.63-.57.4-.96.95-1.5,1.37-.4.31-.99.41-1.41.81-.27.26-.48.59-.58.95-.05.19-.17,1.11.04,1.23.12.07.31-1.11.62-1.03-.05-.01-.21.06-.26.08-.27.08-.55.17-.8.3-.62.35-1.06.94-1.1,1.66-.02.3,0,.81.18,1.08.09.13.09-.14,0-.01s-.12.34-.17.49c-.1.26-.22.51-.29.79-.05.21-.13.48-.1.69.03.18-.04,0,0-.07l.54-.54-.13.07,1.82,2.36c.21-.17.51-.21.76-.21l-.4-2.95c-.71.1-1.4.39-1.99.81-.66.47-.97,1.31-.54,2.05.38.65,1.39,1.01,2.05.54h0Z"/>
  <path class="cls-2" d="M14.86,25.14c-.19-1.01.44-2,.93-2.83.57-.97,1.08-1.95,1.46-3.01.4-1.12.82-2.29.92-3.49.09-1.07-.11-2.18-.15-3.26-.08-2.25-1.18-4.06-2.49-5.82s-3.08-3.15-5.37-3.16c-1.93,0-1.93,2.99,0,3,1.79,0,2.86,1.71,3.72,3.05.49.75,1.01,1.51,1.12,2.42s.12,1.94.18,2.89c.26,4.06-3.98,6.91-3.22,11.01.35,1.9,3.25,1.09,2.89-.8h0Z"/>
  <path class="cls-2" d="M10.65,6.63c.16.02.31.07.45.13l-.36-.15c.42.18.78.46,1.19.65.52.24,1.05.42,1.58.64l-.36-.15c.28.12.55.26.79.44l-.3-.23.05.04c.33.26.63.44,1.06.44.37,0,.81-.16,1.06-.44s.46-.66.44-1.06c-.02-.37-.13-.82-.44-1.06-.23-.18-.45-.36-.71-.5s-.53-.25-.79-.36c-.34-.14-.69-.26-1.02-.41l.36.15c-.74-.32-1.38-.89-2.2-1.02-.41-.06-.78-.07-1.16.15-.31.18-.61.54-.69.9-.09.38-.07.81.15,1.16.2.31.52.63.9.69h0Z"/>
  <path class="cls-2" d="M14.8,8.51c1.38,0,2.65.68,4.05.54s2.46-.86,3.25-1.98l-2.59-1.51c-.85,1.26-1.67,2.61-2.22,4.03s-.3,3.09-.1,4.56.35,3.24,1,4.65,2.01,2.47,3.15,3.45c.96.82,2.56.31,2.56-1.06,0-1.45-.88-2.56-1.72-3.66-.32-.42-.76-.82-1-1.29-.3-.58-.32-1.36-.43-1.99-.41-2.39-.38-5.85-2.83-7.15-1.1-.58-2.11.17-2.26,1.3-.39,3,.68,6.02,1.44,8.89.19.73.39,1.46.58,2.19.1.39.21.78.31,1.18l.13.5c.05.32.13.23.24-.28-.05-.02-1.48,1-1.6,1.07-.6.32-1.21.57-1.86.77l1.85,1.85c.29-1.51,1.41-2.24,2.32-3.36,1.1-1.34,1.01-3.07-.4-4.12-.65-.49-1.68-.1-2.05.54-.45.77-.11,1.56.54,2.05l.17.13-.54-.54c.32.41-.03,0,.06-.08-.14.13-.28.32-.42.46-.36.36-.73.71-1.05,1.11-.73.89-1.31,1.88-1.53,3.02-.21,1.07.68,2.2,1.85,1.85,1.6-.49,3.08-1.24,4.4-2.28.63-.5,1.08-1.1,1.1-1.94s-.37-1.74-.58-2.54c-.47-1.78-.96-3.56-1.42-5.34-.44-1.69-.77-3.35-.54-5.1l-2.26,1.3c.8.42.81,1.59.95,2.38.21,1.22.42,2.45.63,3.67.2,1.14.55,2,1.28,2.9.51.63,1.65,1.7,1.64,2.55l2.56-1.06c-.84-.72-2.06-1.58-2.56-2.59-.53-1.07-.61-2.62-.76-3.79-.14-1.06-.37-2.35.06-3.36.5-1.16,1.21-2.27,1.91-3.32,1.08-1.62-1.49-3.07-2.59-1.51-.42.59-1.11.57-1.75.45-.99-.19-1.93-.49-2.95-.49-1.93,0-1.93,2.99,0,3h0Z"/>
  <path class="cls-2" d="M13.43,7.17c-1.07-.55-2.15-1.08-3.26-1.55-1.04-.44-2.21-.82-3.32-.4l.49.84c.68-.53,1.39-1.09,2.21-1.38.95-.34,1.85-.17,2.8.06.63.15.89-.81.27-.96-1.11-.27-2.23-.46-3.34-.06-.99.36-1.83,1-2.65,1.64-.39.3.03,1.01.49.84.97-.37,1.97.04,2.86.43,1,.44,1.98.92,2.95,1.42.57.3,1.08-.57.5-.86h0Z"/>
  <path class="cls-2" d="M6.68,6.66s.1-.08.15-.13c.05-.04.05-.04.01-.01.03-.02.05-.04.08-.06.11-.08.21-.15.33-.21s.23-.13.35-.18c.03-.01.06-.03.09-.04-.04.02-.04.02.02,0,.06-.02.12-.05.18-.07.53-.18.89-.23,1.45-.2.26.01.51-.24.5-.5-.01-.28-.22-.48-.5-.5-1.23-.07-2.44.38-3.36,1.2-.2.17-.19.53,0,.71.21.19.5.19.71,0h0Z"/>
  <path class="cls-2" d="M20.95,24.51c-.34.73-.18,1.51.32,2.12.53.64,1.37.91,2.15,1.13l.27-.96c-.46-.11-1.05-.24-1.37-.62-.38-.45-.16-1.27-.05-1.78.14-.67.35-1.33.46-2.01s.12-1.37.08-2.06c0-.12,0-.23,0-.35,0-.05,0-.09.02-.13,0-.04,0-.03-.02.03.21.08.34.58.38.77.16.6.14,1.24.14,1.86,0,1.5,0,2.99,0,4.49l.85-.35c-.36-.3-.76-.41-1.18-.6-.52-.23-.46-.61-.33-1.11h-.96c.17.6.43,1.17.79,1.68.29.41.9.26.93-.25.07-.98.05-1.96-.04-2.94-.04-.39-.54-.71-.85-.35-.39.45-.95.89-.89,1.53.03.34.17.68.26,1,.05.17.1.34.15.52.02.07.04.15.06.22.15-.18.13-.26-.05-.24-.1-.06-.28-.08-.4-.12-.18-.06-.35-.14-.52-.2-.25-.09-.51-.15-.78-.15-.53,0-.99.2-1.29.64-.23.35.16.89.56.73.65-.25,1.3-.32,1.99-.24v-1c-.71-.06-1.38.2-1.91.68-.48.44.23,1.14.71.71.2-.18.41-.3.67-.38.61-.19.35-1.15-.27-.96-.42.13-.78.34-1.11.63l.71.71c.34-.31.75-.42,1.2-.39.65.05.62-.92,0-1-.77-.1-1.54,0-2.26.27l.56.73c.26-.39,1.03,0,1.33.12.47.18,1.18.4,1.62.01.46-.41.12-1.09-.02-1.57-.05-.18-.27-.74-.25-.85.02-.07.2-.23.24-.28.13-.14.25-.29.38-.43l-.85-.35c.09.98.11,1.96.04,2.94l.93-.25c-.31-.45-.54-.92-.69-1.45-.13-.47-.84-.48-.96,0-.17.66-.25,1.39.29,1.91.42.41,1.05.42,1.49.78.32.26.85.11.85-.35,0-1.5.02-2.99,0-4.49,0-1.1.06-2.75-.97-3.46-.49-.34-1.13-.22-1.41.32s-.1,1.21-.1,1.77c-.01,1.42-.61,2.73-.71,4.14-.05.66.11,1.3.63,1.75.47.4,1.08.59,1.67.74.63.15.88-.78.27-.96-.5-.15-1.04-.29-1.46-.63-.32-.26-.61-.74-.41-1.16.27-.58-.59-1.09-.86-.5h0Z"/>
  <path class="cls-2" d="M27.44,12.82c-.32-.1-.7-.05-.98.13-.37.23-.69.72-.37,1.12.15.2.36.24.58.28-.02,0-.1-.02,0,0,.04,0,.09.01.13.02.09.02.18.03.27.05.15.03.29.07.44.12.07.02.14.05.21.07.03.01.06.02.08.03.02,0,.19.08.09.04.34.15.71.44,1.1.33.23-.06.42-.25.48-.48.08-.3-.09-.55-.33-.72-.27-.18-.56-.33-.85-.46-.06-.02-.11-.05-.17-.08-.02,0-.09-.04-.09-.06l.02.02s.03.02,0,0l-.02-.03c.04.06.05.06.02.01.04.06.02.03,0,0v-.04c0,.06,0,.06,0,0,0-.05,0-.09-.01-.14-.01-.19-.01-.39-.04-.57-.01-.1-.02.09,0,.03.01-.04,0-.02-.02.05-.14.2-.35.2-.66.01l-.02-.04.03.07c.02.05.04.11.06.16.15.36.29.73.44,1.09l.48-.63s-.05,0-.06,0c.05-.05.11.04.04,0-.1-.05.08.05-.01,0-.08-.05-.15-.1-.23-.16-.2-.15-.41-.26-.66-.28-.05,0-.1,0-.15,0-.07,0-.13.02-.2.03-.01,0-.03,0-.04,0-.03,0-.03,0,0,0,.03,0,.07,0,.1.02.18.08.31.37.06.56-.01,0-.2.09-.1.07.02,0,.04-.01.07-.02.31-.11.58-.37.64-.71.05-.26-.07-.55-.35-.62-.24-.06-.57.07-.62.35,0,.02,0,.03-.01.05-.01.04,0,.02.02-.04.01.03-.09.07-.02.04.02-.03.02-.03,0-.01-.03.03-.02.02.03-.02-.07.05.06-.01.01,0-.2.05-.41.17-.5.36-.13.26-.07.55.14.76.19.19.45.23.71.19.04,0,.08,0,.11-.02.04,0,.03,0-.02,0h.05s.04,0,0,0c-.04,0-.05,0-.02,0,.08,0,0,.02-.02-.02.03.03.11.06.14.08.04.03.08.06.13.09.22.17.48.32.77.29.16-.01.29-.07.39-.2.09-.11.15-.29.09-.44-.12-.3-.24-.61-.36-.91-.14-.34-.23-.82-.64-.92-.47-.12-.8.33-.79.76,0,.15.02.3.03.45.01.19.01.38.07.56.1.34.35.56.66.69.27.12.53.25.79.41.02.01.08.04.1.06l-.05-.04v-.51s.1-.05.14-.08c.16.01.2.01.11,0,0,0,.11.06,0,0-.13-.07-.27-.14-.4-.2-.3-.13-.61-.25-.93-.33-.16-.04-.32-.08-.48-.1-.1-.02-.21-.03-.31-.04.12.02.04,0,.01,0-.04-.01-.02,0,.05.02,0,.47.06.63.15.47.04-.06-.09.09,0,0,.01-.01.02-.02.04-.04.03-.02.02-.02-.04.02,0-.02.05-.04.07-.05.1-.06-.04,0,0,0,.03,0,.05-.02.08-.02.1-.03-.1,0,0,0,0,0,.07,0,.07,0-.08-.01-.09-.01-.03,0,.02,0,.04.01.06.02.25.08.56-.09.62-.35.06-.27-.08-.53-.35-.62h0Z"/>
  <path class="cls-2" d="M22.44,6.19c.05-.02.11-.03.16-.05.02,0,.05,0,.07-.01-.03,0-.08,0,0,0,.05,0,.09,0,.14,0,.03,0,.06,0,.09,0-.05,0-.03,0,0,0,.05.02.11.03.16.04.02,0,.04.02.07.02,0,0-.06-.03,0,0,.11.05.21.11.31.18-.06-.04.03.03.05.04.04.04.08.08.12.12.02.02.11.13.06.07.04.05.07.11.1.16.02.04.05.08.07.13-.04-.08.02.07.03.09.04.13.06.25.07.37.02.3.01.6,0,.9,0,.07,0,.15,0,.22,0,.15-.08.28.12.04s.11-.15-.04-.1c-.09.03-.17.05-.26.08-.29.08-.59.15-.89.19-.13.02-.27.03-.4.04-.06,0-.12,0-.17,0-.03,0-.05,0-.08,0,.07,0,0,0-.04-.01-.06-.01,0,0,0,0-.06,0-.02-.05-.01,0,0,0,.03.04.02.04,0,0-.02-.1-.03-.11,0,.05,0-.12,0-.14,0-.09,0-.18,0-.27,0-.36,0-.73,0-1.09,0-.27-.23-.5-.5-.5s-.5.23-.5.5c0,.41,0,.82,0,1.23s.02.84.38,1.12c.3.23.68.25,1.04.22.41-.04.82-.1,1.22-.2s.94-.19,1.07-.63c.05-.18.03-.41.03-.59s0-.39,0-.58c0-.74-.17-1.45-.72-1.97s-1.33-.78-2.06-.53c-.26.09-.42.34-.35.62.07.25.36.44.62.35h0Z"/>
  <path class="cls-2" d="M22.02,5.41s.1-.02.01,0,0,0,.01,0c.04,0,.08,0,.12,0s.08,0,.12,0c.02,0,.04,0,.07,0,.02,0,.09.01,0,0-.09-.01,0,0,.01,0,.02,0,.04,0,.07.01.04,0,.08.02.12.03s.08.02.11.04c.02,0,.04.02.06.02.08.03-.09-.04-.03-.01.07.04.14.07.21.11.03.02.07.04.1.07.01,0,.08.06.01,0s0,0,.01.01c.06.05.12.11.17.17.03.03.11.15.02.02.02.04.05.07.08.11.14.22.45.33.68.18.22-.14.33-.45.18-.68-.24-.38-.59-.69-1-.87-.46-.2-.93-.26-1.42-.18-.12.02-.24.13-.3.23-.06.11-.09.27-.05.39.09.28.34.4.62.35h0Z"/>
  <path class="cls-2" d="M10.78,17.57c-.73.08-1.47.07-2.19-.08-.68-.14-1.37-.52-2.07-.32-.53.15-.44,1,.13.98.89-.03,1.65.6,1.83,1.46l.73-.56c-.69-.39-1.38-.78-2.06-1.19-.03-.02-.17-.13-.2-.12-.03,0-.02.2.01.23.05.05.41.03.5.04.42.05.83.1,1.25.14,1.63.15,3.27.17,4.9.09.64-.03.64-1.03,0-1-2.08.11-4.16.03-6.22-.23-.43-.05-.86-.05-1.17.3-.28.31-.31.78-.02,1.09s.78.52,1.16.74c.45.26.9.52,1.36.77.4.22.82-.14.73-.56-.26-1.29-1.49-2.24-2.79-2.2l.13.98c.31-.09.62.07.91.16.33.1.67.18,1.01.23.69.11,1.38.12,2.07.05.27-.03.5-.21.5-.5,0-.25-.23-.53-.5-.5h0Z"/>
  <path class="cls-2" d="M19.69,11.76c.12-.29.27-.57.44-.84.04-.06.08-.12.12-.18.09-.13-.06.07.04-.05.02-.02.04-.05.06-.07.11-.12.22-.24.34-.34.02-.02.05-.04.07-.06-.06.05.02-.02.03-.03.07-.05.13-.09.2-.13s.14-.08.22-.12c.01,0,.11-.05.04-.02.03-.01.06-.02.09-.03.08-.03.15-.05.23-.07.04,0,.08-.02.12-.03.02,0,.13-.02.03,0,.16-.02.32-.02.48,0,.26.03.51-.25.5-.5-.01-.29-.22-.47-.5-.5-1.59-.16-2.82,1.13-3.4,2.48-.1.24-.08.55.18.68.21.11.57.08.68-.18h0Z"/>
  <path class="cls-2" d="M20.27,16.07l1.11.19c.35.06.73.09,1.07.2.2.07.34.23.41.4.12.3.1.63.06.94l.75-.43s-.03-.03,0,0c0,0-.09-.09-.05-.04.04.04-.02-.03-.02-.04-.02-.02-.03-.05-.05-.08-.07-.12-.12-.24-.18-.36-.16-.3-.38-.53-.71-.64-.46-.15-.87.51-.49.84.45.39.94.76,1.35,1.18.08.08.12.13.18.22.04.07.02,0,.03.09,0-.07-.01.08,0,.02-.01.05-.05.14-.09.18-.08.11-.2.2-.3.3l.79.1c-.2-.32-.36-.68-.4-1.05-.03-.27-.21-.5-.5-.5-.24,0-.53.23-.5.5.07.56.23,1.08.54,1.55.18.28.54.32.79.1.27-.24.53-.51.63-.87s.03-.73-.18-1.03c-.19-.29-.46-.5-.72-.73-.3-.26-.6-.52-.91-.78l-.49.84c.06.02.02.02,0,0,.04.04.02.02,0,0,.02.02.04.04.06.06-.03-.03-.03-.05,0,0,.06.11.12.22.18.33.13.27.3.51.56.67.15.09.35.09.5,0,.17-.1.22-.25.25-.43.11-.8-.11-1.72-.86-2.15-.36-.21-.79-.24-1.19-.31l-1.33-.23c-.27-.05-.54.07-.62.35-.07.24.08.57.35.62h0Z"/>
</svg>